# xmcd CD database file
#
# Track frame offsets:
#	150
#	30485
#	49852
#	66782
#	78677
#	105725
#	119790
#	133915
#	149382
#	167227
#	183115
#	194742
#	210582
#	222660
#	236177
#	253642
#	274455
#	295832
#	307767
#	321850
#
# Disc length: 4535 seconds
#
# Revision: 2
# Processed by: cddbd v1.5.2PL0 Copyright (c) Steve Scherf et al.
# Submitted via: CDex 1.51
#
DISCID=4611b514
DTITLE=Taj Mahal - Blues with a Feeling - The Very Best of Taj Mahal
DYEAR=2003
DGENRE=Blues
TTITLE0=Señor Blues
TTITLE1=Don't Call Us
TTITLE2=(You've Got to) Love Her with a Feeling ft. Eric Clapton
TTITLE3=Lovin' In My Baby's Eyes
TTITLE4=Betty and Dupree
TTITLE5=Here in the Dark
TTITLE6=That's How Strong My Love Is
TTITLE7=Lonely Avenue
TTITLE8=Mockingbird ft. Etta James
TTITLE9=Mailbox Blues
TTITLE10=Think
TTITLE11=Sitting on Top of the World
TTITLE12=Mind Your Own Business
TTITLE13=Cakewalk Into Town
TTITLE14=Blues with a Feeling
TTITLE15=Take a Giant Step
TTITLE16=The New Hula Blues
TTITLE17=The Hustle Is On
TTITLE18=Let the Winds Blow
TTITLE19=Blue Light Boogie
EXTD=YEAR: 2003
EXTT0=
EXTT1=
EXTT2=
EXTT3=
EXTT4=
EXTT5=
EXTT6=
EXTT7=
EXTT8=
EXTT9=
EXTT10=
EXTT11=
EXTT12=
EXTT13=
EXTT14=
EXTT15=
EXTT16=
EXTT17=
EXTT18=
EXTT19=
PLAYORDER=
